<svg width="50" height="50" viewBox="0 0 50 50" fill="none" xmlns="http://www.w3.org/2000/svg">
<circle cx="25" cy="25" r="25" fill="url(#paint0_radial_292_69)"/>
<path d="M20.1343 35.86C29.9065 35.86 35.2522 27.8325 35.2522 20.8833C35.2544 20.6576 35.2512 20.4319 35.2425 20.2062C36.283 19.4589 37.1811 18.5342 37.8952 17.4753C36.9227 17.8993 35.8926 18.1794 34.8379 18.3064C35.9491 17.6481 36.7814 16.6121 37.1798 15.391C36.1364 16.0051 34.9936 16.4356 33.8021 16.6634C33.0013 15.8179 31.9416 15.2577 30.7871 15.0697C29.6326 14.8817 28.4478 15.0764 27.4163 15.6236C26.3847 16.1707 25.5639 17.0399 25.081 18.0963C24.5982 19.1528 24.4801 20.3377 24.7453 21.4674C22.6327 21.3628 20.5659 20.819 18.6791 19.8711C16.7922 18.9233 15.1276 17.5926 13.7932 15.9654C13.1161 17.1257 12.9095 18.498 13.2155 19.8038C13.5214 21.1095 14.317 22.251 15.4408 22.9965C14.5983 22.9695 13.7741 22.7452 13.0358 22.3418V22.414C13.0379 23.6293 13.4628 24.8066 14.2388 25.7473C15.0149 26.688 16.0945 27.3344 17.2956 27.5774C16.8396 27.702 16.3686 27.7641 15.8956 27.7619C15.5621 27.7654 15.2291 27.7347 14.9019 27.6705C15.2408 28.7171 15.9017 29.6323 16.792 30.2875C17.6822 30.9428 18.7571 31.3052 19.8657 31.324C17.982 32.7889 15.6565 33.5839 13.2624 33.5816C12.8405 33.5847 12.4188 33.5606 12 33.5094C14.43 35.0457 17.2523 35.8612 20.1343 35.86Z" fill="#F2F2F2"/>
<defs>
<radialGradient id="paint0_radial_292_69" cx="0" cy="0" r="1" gradientUnits="userSpaceOnUse" gradientTransform="translate(25 25) rotate(89.5659) scale(29.7306)">
<stop offset="0.308383" stop-color="#29CD9C"/>
<stop offset="0.739189" stop-color="#29CD9C" stop-opacity="0.5"/>
</radialGradient>
</defs>
</svg>
